<mxfile host="app.diagrams.net" agent="Mozilla/5.0 (X11; Linux x86_64) AppleWebKit/537.36 (KHTML, like Gecko) Chrome/133.0.0.0 Safari/537.36" version="26.1.0">
  <diagram name="Page-1" id="9Tg7EX2D0c9I3gXOCxlk">
    <mxGraphModel dx="1434" dy="788" grid="1" gridSize="10" guides="1" tooltips="1" connect="1" arrows="1" fold="1" page="1" pageScale="1" pageWidth="850" pageHeight="1100" math="0" shadow="0">
      <root>
        <mxCell id="0" />
        <mxCell id="1" parent="0" />
        <mxCell id="MB3DFi6flZzeamyuB47I-2" value="" style="strokeWidth=2;html=1;shape=mxgraph.flowchart.start_1;whiteSpace=wrap;" vertex="1" parent="1">
          <mxGeometry x="370" y="190" width="100" height="60" as="geometry" />
        </mxCell>
        <mxCell id="MB3DFi6flZzeamyuB47I-3" value="" style="endArrow=classic;html=1;rounded=0;" edge="1" parent="1" source="MB3DFi6flZzeamyuB47I-2">
          <mxGeometry width="50" height="50" relative="1" as="geometry">
            <mxPoint x="420" y="480" as="sourcePoint" />
            <mxPoint x="420" y="340" as="targetPoint" />
          </mxGeometry>
        </mxCell>
        <mxCell id="MB3DFi6flZzeamyuB47I-4" value="Signup&amp;nbsp;" style="rounded=1;whiteSpace=wrap;html=1;absoluteArcSize=1;arcSize=14;strokeWidth=2;" vertex="1" parent="1">
          <mxGeometry x="370" y="560" width="100" height="100" as="geometry" />
        </mxCell>
        <mxCell id="MB3DFi6flZzeamyuB47I-6" value="" style="endArrow=classic;html=1;rounded=0;exitX=1.02;exitY=0.6;exitDx=0;exitDy=0;exitPerimeter=0;" edge="1" parent="1">
          <mxGeometry width="50" height="50" relative="1" as="geometry">
            <mxPoint x="470" y="389.5" as="sourcePoint" />
            <mxPoint x="558" y="389.5" as="targetPoint" />
            <Array as="points" />
          </mxGeometry>
        </mxCell>
        <mxCell id="MB3DFi6flZzeamyuB47I-9" value="" style="endArrow=classic;html=1;rounded=0;" edge="1" parent="1" target="MB3DFi6flZzeamyuB47I-10">
          <mxGeometry width="50" height="50" relative="1" as="geometry">
            <mxPoint x="425" y="660" as="sourcePoint" />
            <mxPoint x="430" y="780" as="targetPoint" />
          </mxGeometry>
        </mxCell>
        <mxCell id="MB3DFi6flZzeamyuB47I-10" value="Dashboard&amp;nbsp;" style="shape=parallelogram;html=1;strokeWidth=2;perimeter=parallelogramPerimeter;whiteSpace=wrap;rounded=1;arcSize=12;size=0.23;" vertex="1" parent="1">
          <mxGeometry x="380" y="750" width="100" height="60" as="geometry" />
        </mxCell>
        <mxCell id="MB3DFi6flZzeamyuB47I-11" value="" style="endArrow=classic;html=1;rounded=0;" edge="1" parent="1" target="MB3DFi6flZzeamyuB47I-18">
          <mxGeometry width="50" height="50" relative="1" as="geometry">
            <mxPoint x="421" y="810" as="sourcePoint" />
            <mxPoint x="420" y="900" as="targetPoint" />
          </mxGeometry>
        </mxCell>
        <mxCell id="MB3DFi6flZzeamyuB47I-13" value="" style="endArrow=classic;html=1;rounded=0;exitX=1;exitY=0.5;exitDx=0;exitDy=0;" edge="1" parent="1" source="MB3DFi6flZzeamyuB47I-10">
          <mxGeometry width="50" height="50" relative="1" as="geometry">
            <mxPoint x="455" y="690" as="sourcePoint" />
            <mxPoint x="551.5" y="780" as="targetPoint" />
          </mxGeometry>
        </mxCell>
        <mxCell id="MB3DFi6flZzeamyuB47I-15" value="&lt;div&gt;&lt;br&gt;&lt;/div&gt;&lt;div&gt;&lt;br&gt;&lt;/div&gt;Risk Analysis&amp;nbsp;&lt;div&gt;&lt;br&gt;&lt;/div&gt;&lt;div&gt;&lt;br&gt;&lt;/div&gt;" style="rounded=1;whiteSpace=wrap;html=1;absoluteArcSize=1;arcSize=14;strokeWidth=2;" vertex="1" parent="1">
          <mxGeometry x="550" y="730" width="100" height="100" as="geometry" />
        </mxCell>
        <mxCell id="MB3DFi6flZzeamyuB47I-16" value="Monitoring" style="rounded=1;whiteSpace=wrap;html=1;absoluteArcSize=1;arcSize=14;strokeWidth=2;" vertex="1" parent="1">
          <mxGeometry x="160" y="730" width="100" height="100" as="geometry" />
        </mxCell>
        <mxCell id="MB3DFi6flZzeamyuB47I-17" value="" style="endArrow=classic;html=1;rounded=0;exitX=0;exitY=0.5;exitDx=0;exitDy=0;entryX=1;entryY=0.5;entryDx=0;entryDy=0;" edge="1" parent="1" source="MB3DFi6flZzeamyuB47I-10" target="MB3DFi6flZzeamyuB47I-16">
          <mxGeometry width="50" height="50" relative="1" as="geometry">
            <mxPoint x="270" y="710" as="sourcePoint" />
            <mxPoint x="274" y="800" as="targetPoint" />
          </mxGeometry>
        </mxCell>
        <mxCell id="MB3DFi6flZzeamyuB47I-18" value="" style="rounded=1;whiteSpace=wrap;html=1;absoluteArcSize=1;arcSize=14;strokeWidth=2;" vertex="1" parent="1">
          <mxGeometry x="370" y="900" width="100" height="100" as="geometry" />
        </mxCell>
        <mxCell id="MB3DFi6flZzeamyuB47I-19" value="Login/Signup" style="strokeWidth=2;html=1;shape=mxgraph.flowchart.decision;whiteSpace=wrap;" vertex="1" parent="1">
          <mxGeometry x="370" y="340" width="100" height="100" as="geometry" />
        </mxCell>
        <mxCell id="MB3DFi6flZzeamyuB47I-21" value="" style="rounded=1;whiteSpace=wrap;html=1;absoluteArcSize=1;arcSize=14;strokeWidth=2;" vertex="1" parent="1">
          <mxGeometry x="580" y="340" width="100" height="100" as="geometry" />
        </mxCell>
      </root>
    </mxGraphModel>
  </diagram>
</mxfile>
